<?xml version="1.0" encoding="UTF-8"?>
<svg id="Layer_1" xmlns="http://www.w3.org/2000/svg" viewBox="0 0 500 1236.45">
  <defs>
    <style>
      .cls-1 {
        fill: #fff;
      }

      .cls-2 {
        fill: #f7f7f7;
      }
    </style>
  </defs>
  <g>
    <polygon class="cls-2" points="126.86 166.86 2.52 167.06 101.67 0 200.45 167.25 155.04 167.01 102.07 76.35 72.95 132.23 106.8 132.03 126.86 166.86"/>
    <polygon class="cls-2" points="274.64 167.45 229.39 167.06 176.65 76.54 197.51 36.4 274.64 167.45"/>
  </g>
  <g>
    <polygon class="cls-2" points="345.55 469.2 221.2 469.4 320.36 302.34 419.14 469.59 373.72 469.35 320.75 378.69 291.63 434.57 325.49 434.37 345.55 469.2"/>
    <polygon class="cls-2" points="493.33 469.79 448.07 469.4 395.34 378.88 416.2 338.74 493.33 469.79"/>
  </g>
  <g>
    <polygon class="cls-2" points="128.55 771.54 4.2 771.74 103.36 604.68 202.14 771.94 156.72 771.69 103.75 681.03 74.63 736.91 108.49 736.71 128.55 771.54"/>
    <polygon class="cls-2" points="276.33 772.13 231.07 771.74 178.34 681.23 199.2 641.09 276.33 772.13"/>
  </g>
  <g>
    <polygon class="cls-2" points="349.55 1073.88 225.2 1074.08 324.36 907.03 423.14 1074.28 377.72 1074.03 324.75 983.37 295.63 1039.25 329.49 1039.06 349.55 1073.88"/>
    <polygon class="cls-2" points="497.33 1074.47 452.07 1074.08 399.34 983.57 420.2 943.43 497.33 1074.47"/>
  </g>
  <rect class="cls-1" y="1076.45" width="500" height="160"/>
</svg>